<svg width="48" height="53" viewBox="0 0 48 53" fill="none" xmlns="http://www.w3.org/2000/svg">
<path d="M34.5 13.5L27 22L37 24L44 15.5L34.5 13.5Z" fill="#FFD600"/>
<path d="M44 15.5L37 24L47.5 27L44 15.5Z" fill="#DAB805"/>
<path d="M47.5 27L37 24L39.5 35L47.5 27Z" fill="#FFD600"/>
<path d="M39.5 35L37 24L30.5 32L39.5 35Z" fill="#DAB805"/>
<path d="M39.5 35L30.5 32L32 44.5L39.5 35Z" fill="#FFD600"/>
<path d="M32 44.5L22.5 42L24.5 53L32 44.5Z" fill="#FFD600"/>
<path d="M19.5 30.5L15.75 34.75L12 39L14.5 50.5L22.5 42L19.5 30.5Z" fill="#FFD600"/>
<path d="M32 44.5L30.5 32L22.5 42L32 44.5Z" fill="#DAB805"/>
<path d="M24.5 53L22.5 42L14.5 50.5L24.5 53Z" fill="#DAB805"/>
<path d="M32 2.31348L24.5 11.5L27 22L34.5 13.5L32 2.31348Z" fill="#3F06F9"/>
<path d="M32 2.31348L21.5 0L24.5 11.5L32 2.31348Z" fill="#31009C"/>
<path d="M24.5 11.5L21.5 0L15 8L24.5 11.5Z" fill="#3F06F9"/>
<path d="M24.5 11.5L15 8L16.5 19.5L24.5 11.5Z" fill="#31009C"/>
<path d="M16.5 19.5L7.5 16.5L9 28.5L16.5 19.5Z" fill="#31009C"/>
<path d="M9 28.5L0 25L2 37.5L9 28.5Z" fill="#31009C"/>
<path d="M9 28.5L2 37.5L12 39L15.75 34.75L19.5 30.5L9 28.5Z" fill="#3F06F9"/>
<path d="M9 28.5L7.5 16.5L0 25L9 28.5Z" fill="#3F06F9"/>
<path d="M16.5 19.5L15 8L11.25 12.25L7.5 16.5L16.5 19.5Z" fill="#3F06F9"/>
</svg>